<svg width="92" height="35" viewBox="0 0 92 35" fill="none" xmlns="http://www.w3.org/2000/svg">
<path d="M29.2 26.72C29.6 26.56 29.9333 26.48 30.2 26.48C30.6267 26.48 30.9467 26.64 31.16 26.96C31.3733 27.28 31.48 27.6933 31.48 28.2C31.48 29 31.28 29.68 30.88 30.24C30.5067 30.8 29.8533 31.3067 28.92 31.76C27.3467 32.5067 25.3067 33.1067 22.8 33.56C20.2933 33.9867 17.8267 34.2 15.4 34.2C12.04 34.2 9.22667 33.8267 6.96 33.08C4.69333 32.3067 3 31.2533 1.88 29.92C0.786667 28.5867 0.24 27.08 0.24 25.4C0.24 23.1067 0.973333 21.16 2.44 19.56C3.93333 17.9333 6.12 16.76 9 16.04C7.42667 15.5867 6.21333 14.7867 5.36 13.64C4.53333 12.4933 4.12 11.2133 4.12 9.8C4.12 7.88 4.72 6.18666 5.92 4.72C7.14667 3.22666 8.78667 2.08 10.84 1.28C12.8933 0.479998 15.1467 0.079998 17.6 0.079998C20.9067 0.079998 23.3867 0.799998 25.04 2.24C26.6933 3.65333 27.52 5.49333 27.52 7.76C27.52 9.33333 27.2267 10.6133 26.64 11.6C26.08 12.56 25.2667 13.04 24.2 13.04C23.4533 13.04 22.8667 12.88 22.44 12.56C22.0133 12.2133 21.8 11.7067 21.8 11.04C21.8 10.5867 21.8667 10.0933 22 9.56C22.1333 8.68 22.2 8.08 22.2 7.76C22.2 6.8 21.84 6.02667 21.12 5.44C20.4 4.82666 19.2 4.52 17.52 4.52C15.2533 4.52 13.44 5 12.08 5.96C10.72 6.92 10.04 8.21333 10.04 9.84C10.04 11.0933 10.5467 12.1333 11.56 12.96C12.6 13.76 14.28 14.2 16.6 14.28C17.1867 14.3067 17.6 14.44 17.84 14.68C18.08 14.92 18.2 15.32 18.2 15.88C18.2 17.64 17.4 18.5333 15.8 18.56C13.5867 18.6133 11.7467 18.92 10.28 19.48C8.84 20.04 7.78667 20.76 7.12 21.64C6.48 22.4933 6.16 23.4133 6.16 24.4C6.16 26.0533 6.93333 27.3067 8.48 28.16C10.0267 28.9867 12.48 29.4 15.84 29.4C18.0533 29.4 20.3867 29.1467 22.84 28.64C25.32 28.1067 27.44 27.4667 29.2 26.72ZM46.2878 34.2C45.3011 34.2 44.5945 33.9867 44.1678 33.56C43.7411 33.1067 43.5278 32.2667 43.5278 31.04C43.5278 30.2133 43.6078 29.16 43.7678 27.88C43.9545 26.5733 44.2478 24.7867 44.6478 22.52C45.3411 18.3333 45.8878 14.7067 46.2878 11.64C46.5278 9.72 46.6478 8.12 46.6478 6.84C46.6478 5.64 46.2078 5.04 45.3278 5.04C44.6345 5.04 43.7945 5.4 42.8078 6.12C41.8478 6.81333 40.7811 7.93333 39.6078 9.48C39.2345 9.98667 38.8211 10.24 38.3678 10.24C37.9945 10.24 37.6611 10.0667 37.3678 9.72C37.1011 9.34666 36.9678 8.93333 36.9678 8.48C36.9678 8.05333 37.0478 7.62667 37.2078 7.2C37.3945 6.74667 37.6878 6.24 38.0878 5.68C39.3678 3.89333 40.7945 2.52 42.3678 1.56C43.9411 0.573331 45.5145 0.079998 47.0878 0.079998C48.5545 0.079998 49.6745 0.546665 50.4478 1.48C51.2478 2.41333 51.6478 3.77333 51.6478 5.56C51.6478 6.28 51.5811 7.13333 51.4478 8.12C51.3145 9.08 51.1945 9.86667 51.0878 10.48C50.9811 11.0933 50.9011 11.52 50.8478 11.76C52.3678 7.41333 54.0745 4.38666 55.9678 2.68C57.8611 0.946665 59.9411 0.079998 62.2078 0.079998C63.9411 0.079998 65.3011 0.693331 66.2878 1.92C67.3011 3.14666 67.8078 4.88 67.8078 7.12C67.8078 8 67.6878 9.09333 67.4478 10.4C68.7811 6.72 70.3411 4.08 72.1278 2.48C73.9145 0.879998 75.9678 0.079998 78.2878 0.079998C80.1545 0.079998 81.5811 0.679998 82.5678 1.88C83.5811 3.08 84.0878 4.76 84.0878 6.92C84.0878 8.09333 83.9145 9.52 83.5678 11.2L81.1278 22.64C80.8611 23.9733 80.7278 25.12 80.7278 26.08C80.7278 27.2 80.9811 28.04 81.4878 28.6C82.0211 29.16 82.7545 29.44 83.6878 29.44C84.5678 29.44 85.4211 29.1467 86.2478 28.56C87.1011 27.9733 88.1011 27 89.2478 25.64C89.5678 25.2667 89.9278 25.08 90.3278 25.08C90.6745 25.08 90.9411 25.24 91.1278 25.56C91.3411 25.88 91.4478 26.32 91.4478 26.88C91.4478 27.92 91.1945 28.7467 90.6878 29.36C89.3011 31.04 87.9278 32.2667 86.5678 33.04C85.2078 33.8133 83.7811 34.2 82.2878 34.2C80.0211 34.2 78.2478 33.5333 76.9678 32.2C75.6878 30.84 75.0478 29.0267 75.0478 26.76C75.0478 25.1867 75.3678 22.9067 76.0078 19.92L77.6078 12.6C77.6611 12.36 77.7545 11.9333 77.8878 11.32C78.0211 10.7067 78.1278 10.1333 78.2078 9.6C78.2878 9.04 78.3278 8.49333 78.3278 7.96C78.3278 7.02667 78.1411 6.33333 77.7678 5.88C77.4211 5.4 76.9145 5.16 76.2478 5.16C74.9945 5.16 73.6745 5.97333 72.2878 7.6C70.9278 9.2 69.6211 11.8667 68.3678 15.6C67.1411 19.3333 66.1411 24.1867 65.3678 30.16C65.1811 31.76 64.8478 32.84 64.3678 33.4C63.9145 33.9333 63.1678 34.2 62.1278 34.2C61.2211 34.2 60.5545 33.9867 60.1278 33.56C59.7278 33.1333 59.5278 32.3333 59.5278 31.16C59.5278 30.0667 59.6745 28.64 59.9678 26.88C60.2611 25.0933 60.6345 23 61.0878 20.6C62.3145 14.1467 62.9278 9.98667 62.9278 8.12C62.9278 7.10666 62.7278 6.36 62.3278 5.88C61.9545 5.4 61.3811 5.16 60.6078 5.16C59.3011 5.16 57.9545 5.90667 56.5678 7.4C55.1811 8.86667 53.8211 11.4933 52.4878 15.28C51.1811 19.04 50.0878 24.1333 49.2078 30.56C49.0211 31.92 48.7411 32.8667 48.3678 33.4C48.0211 33.9333 47.3278 34.2 46.2878 34.2Z" fill="#1A5276"/>
</svg>
