<svg width="402" height="69" viewBox="0 0 402 69" fill="none" xmlns="http://www.w3.org/2000/svg">
<path d="M47.32 43.352C47.96 43.096 48.4933 42.968 48.92 42.968C49.6027 42.968 50.1147 43.224 50.456 43.736C50.7973 44.248 50.968 44.9093 50.968 45.72C50.968 47 50.648 48.088 50.008 48.984C49.4107 49.88 48.3653 50.6907 46.872 51.416C44.3547 52.6107 41.0907 53.5707 37.08 54.296C33.0693 54.9787 29.1227 55.32 25.24 55.32C19.864 55.32 15.3627 54.7227 11.736 53.528C8.10933 52.2907 5.4 50.6053 3.608 48.472C1.85867 46.3387 0.984 43.928 0.984 41.24C0.984 37.5707 2.15733 34.456 4.504 31.896C6.89333 29.2933 10.392 27.416 15 26.264C12.4827 25.5387 10.5413 24.2587 9.176 22.424C7.85333 20.5893 7.192 18.5413 7.192 16.28C7.192 13.208 8.152 10.4987 10.072 8.152C12.0347 5.76266 14.6587 3.928 17.944 2.648C21.2293 1.368 24.8347 0.727997 28.76 0.727997C34.0507 0.727997 38.0187 1.88 40.664 4.184C43.3093 6.44533 44.632 9.38933 44.632 13.016C44.632 15.5333 44.1627 17.5813 43.224 19.16C42.328 20.696 41.0267 21.464 39.32 21.464C38.1253 21.464 37.1867 21.208 36.504 20.696C35.8213 20.1413 35.48 19.3307 35.48 18.264C35.48 17.5387 35.5867 16.7493 35.8 15.896C36.0133 14.488 36.12 13.528 36.12 13.016C36.12 11.48 35.544 10.2427 34.392 9.304C33.24 8.32266 31.32 7.832 28.632 7.832C25.0053 7.832 22.104 8.6 19.928 10.136C17.752 11.672 16.664 13.7413 16.664 16.344C16.664 18.3493 17.4747 20.0133 19.096 21.336C20.76 22.616 23.448 23.32 27.16 23.448C28.0987 23.4907 28.76 23.704 29.144 24.088C29.528 24.472 29.72 25.112 29.72 26.008C29.72 28.824 28.44 30.2533 25.88 30.296C22.3387 30.3813 19.3947 30.872 17.048 31.768C14.744 32.664 13.0587 33.816 11.992 35.224C10.968 36.5893 10.456 38.0613 10.456 39.64C10.456 42.2853 11.6933 44.2907 14.168 45.656C16.6427 46.9787 20.568 47.64 25.944 47.64C29.4853 47.64 33.2187 47.2347 37.144 46.424C41.112 45.5707 44.504 44.5467 47.32 43.352ZM202.754 55.32C201.176 55.32 200.045 54.9787 199.362 54.296C198.68 53.5707 198.338 52.2267 198.338 50.264C198.338 48.9413 198.466 47.256 198.722 45.208C199.021 43.1173 199.49 40.2587 200.13 36.632C201.24 29.9333 202.114 24.1307 202.754 19.224C203.138 16.152 203.33 13.592 203.33 11.544C203.33 9.624 202.626 8.664 201.218 8.664C200.109 8.664 198.765 9.24 197.186 10.392C195.65 11.5013 193.944 13.2933 192.066 15.768C191.469 16.5787 190.808 16.984 190.082 16.984C189.485 16.984 188.952 16.7067 188.482 16.152C188.056 15.5547 187.842 14.8933 187.842 14.168C187.842 13.4853 187.97 12.8027 188.226 12.12C188.525 11.3947 188.994 10.584 189.634 9.688C191.682 6.82933 193.965 4.632 196.482 3.096C199 1.51733 201.517 0.727997 204.034 0.727997C206.381 0.727997 208.173 1.47466 209.41 2.968C210.69 4.46133 211.33 6.63733 211.33 9.496C211.33 10.648 211.224 12.0133 211.01 13.592C210.797 15.128 210.605 16.3867 210.434 17.368C210.264 18.3493 210.136 19.032 210.05 19.416C212.482 12.4613 215.213 7.61866 218.242 4.888C221.272 2.11466 224.6 0.727997 228.226 0.727997C231 0.727997 233.176 1.70933 234.754 3.672C236.376 5.63466 237.186 8.408 237.186 11.992C237.186 13.4 236.994 15.1493 236.61 17.24C238.744 11.352 241.24 7.128 244.098 4.568C246.957 2.008 250.242 0.727997 253.954 0.727997C256.941 0.727997 259.224 1.688 260.802 3.608C262.424 5.528 263.234 8.216 263.234 11.672C263.234 13.5493 262.957 15.832 262.402 18.52L258.498 36.824C258.072 38.9573 257.858 40.792 257.858 42.328C257.858 44.12 258.264 45.464 259.074 46.36C259.928 47.256 261.101 47.704 262.594 47.704C264.002 47.704 265.368 47.2347 266.69 46.296C268.056 45.3573 269.656 43.8 271.49 41.624C272.002 41.0267 272.578 40.728 273.218 40.728C273.773 40.728 274.2 40.984 274.498 41.496C274.84 42.008 275.01 42.712 275.01 43.608C275.01 45.272 274.605 46.5947 273.794 47.576C271.576 50.264 269.378 52.2267 267.202 53.464C265.026 54.7013 262.744 55.32 260.354 55.32C256.728 55.32 253.89 54.2533 251.842 52.12C249.794 49.944 248.77 47.0427 248.77 43.416C248.77 40.8987 249.282 37.2507 250.306 32.472L252.866 20.76C252.952 20.376 253.101 19.6933 253.314 18.712C253.528 17.7307 253.698 16.8133 253.826 15.96C253.954 15.064 254.018 14.1893 254.018 13.336C254.018 11.8427 253.72 10.7333 253.122 10.008C252.568 9.24 251.757 8.856 250.69 8.856C248.685 8.856 246.573 10.1573 244.354 12.76C242.178 15.32 240.088 19.5867 238.082 25.56C236.12 31.5333 234.52 39.2987 233.282 48.856C232.984 51.416 232.45 53.144 231.682 54.04C230.957 54.8933 229.762 55.32 228.098 55.32C226.648 55.32 225.581 54.9787 224.898 54.296C224.258 53.6133 223.938 52.3333 223.938 50.456C223.938 48.7067 224.173 46.424 224.642 43.608C225.112 40.7493 225.709 37.4 226.434 33.56C228.397 23.2347 229.378 16.5787 229.378 13.592C229.378 11.9707 229.058 10.776 228.418 10.008C227.821 9.24 226.904 8.856 225.666 8.856C223.576 8.856 221.421 10.0507 219.202 12.44C216.984 14.7867 214.808 18.9893 212.674 25.048C210.584 31.064 208.834 39.2133 207.426 49.496C207.128 51.672 206.68 53.1867 206.082 54.04C205.528 54.8933 204.418 55.32 202.754 55.32Z" fill="#1A5276"/>
<path d="M73.115 44.296C73.531 44.296 73.851 44.488 74.075 44.872C74.331 45.256 74.459 45.784 74.459 46.456C74.459 47.736 74.155 48.728 73.547 49.432C72.139 51.096 70.587 52.488 68.891 53.608C67.227 54.696 65.339 55.24 63.227 55.24C61.595 55.24 60.139 54.936 58.859 54.328C57.611 53.72 56.619 52.856 55.883 51.736C54.059 54.04 51.899 55.192 49.403 55.192C47.643 55.192 46.251 54.68 45.227 53.656C44.203 52.632 43.691 51.272 43.691 49.576C43.691 47.976 44.059 46.68 44.795 45.688C45.531 44.696 46.571 44.2 47.915 44.2C49.067 44.2 49.643 44.632 49.643 45.496C49.643 45.72 49.611 46.12 49.547 46.696C49.451 47.848 49.403 48.504 49.403 48.664C49.403 49.624 49.819 50.104 50.651 50.104C51.259 50.104 51.835 49.752 52.379 49.048C52.955 48.312 53.419 47.32 53.771 46.072C54.155 44.824 54.347 43.448 54.347 41.944C54.347 40.792 54.203 39.832 53.915 39.064C53.627 38.264 53.275 37.864 52.859 37.864C52.507 37.864 52.251 37.96 52.091 38.152C51.931 38.312 51.771 38.6 51.611 39.016C51.419 39.528 51.163 39.944 50.843 40.264C50.523 40.552 49.963 40.696 49.163 40.696C48.459 40.696 47.899 40.456 47.483 39.976C47.067 39.464 46.859 38.696 46.859 37.672C46.859 36.04 47.355 34.76 48.347 33.832C49.339 32.904 50.619 32.44 52.187 32.44C53.531 32.44 54.747 32.776 55.835 33.448C56.923 34.088 57.755 35.032 58.331 36.28C59.291 35 60.363 34.04 61.547 33.4C62.763 32.76 63.947 32.44 65.099 32.44C66.347 32.44 67.291 32.728 67.931 33.304C68.603 33.88 68.939 34.808 68.939 36.088C68.939 37.528 68.667 38.664 68.123 39.496C67.579 40.296 66.923 40.696 66.155 40.696C65.451 40.696 64.971 40.552 64.715 40.264C64.459 39.976 64.267 39.56 64.139 39.016C64.075 38.632 63.979 38.344 63.851 38.152C63.723 37.96 63.499 37.864 63.179 37.864C62.795 37.864 62.379 38.232 61.931 38.968C61.515 39.672 61.147 40.616 60.827 41.8C60.539 42.984 60.395 44.216 60.395 45.496C60.395 47 60.747 48.168 61.451 49C62.187 49.8 63.179 50.2 64.427 50.2C65.675 50.2 66.843 49.784 67.931 48.952C69.051 48.088 70.347 46.76 71.819 44.968C72.203 44.52 72.635 44.296 73.115 44.296ZM97.1548 44.296C97.5708 44.296 97.8908 44.488 98.1148 44.872C98.3708 45.256 98.4988 45.784 98.4988 46.456C98.4988 47.736 98.1948 48.728 97.5868 49.432C96.2108 51.128 94.7228 52.52 93.1228 53.608C91.5548 54.696 89.7628 55.24 87.7468 55.24C86.0508 55.24 84.6748 54.632 83.6188 53.416C81.7948 54.6 79.8908 55.208 77.9068 55.24C77.4908 61.416 76.5468 66.568 75.0748 70.696C73.6028 74.856 71.4428 76.936 68.5947 76.936C66.8667 76.936 65.5867 76.312 64.7547 75.064C63.9227 73.816 63.5067 72.088 63.5067 69.88C63.5067 66.744 64.2267 63.08 65.6667 58.888C67.1067 54.728 69.3308 50.136 72.3388 45.112C72.3388 40.44 72.3068 37.192 72.2428 35.368C72.2108 34.44 72.5788 33.704 73.3468 33.16C74.1148 32.616 75.0748 32.344 76.2268 32.344C76.8988 32.344 77.3788 32.488 77.6668 32.776C77.9868 33.032 78.1628 33.56 78.1948 34.36C78.1948 35.16 78.2108 35.752 78.2428 36.136C79.2668 34.856 80.2748 33.944 81.2668 33.4C82.2588 32.824 83.3148 32.536 84.4348 32.536C86.2268 32.536 87.6828 33.256 88.8028 34.696C89.9548 36.136 90.5308 38.024 90.5308 40.36C90.5308 42.056 90.2588 43.704 89.7148 45.304C89.1708 46.904 88.4188 48.36 87.4588 49.672C88.1308 49.864 88.6908 49.96 89.1388 49.96C90.1948 49.96 91.2028 49.576 92.1628 48.808C93.1228 48.04 94.3548 46.76 95.8588 44.968C96.2428 44.52 96.6748 44.296 97.1548 44.296ZM78.1468 50.632C79.2988 50.376 80.3548 49.752 81.3148 48.76C82.3068 47.736 83.0908 46.488 83.6668 45.016C84.2428 43.512 84.5308 41.944 84.5308 40.312C84.5308 39.352 84.3388 38.632 83.9548 38.152C83.5708 37.64 83.0588 37.384 82.4188 37.384C81.2668 37.384 79.8748 38.6 78.2428 41.032C78.2108 42.44 78.1948 44.504 78.1948 47.224C78.1948 48.696 78.1788 49.832 78.1468 50.632ZM68.9787 72.232C69.8428 72.232 70.5628 70.344 71.1388 66.568C71.7148 62.824 72.0828 58.152 72.2428 52.552C70.8668 55.752 69.7788 58.808 68.9787 61.72C68.1787 64.632 67.7787 67.08 67.7787 69.064C67.7787 70.088 67.9067 70.872 68.1627 71.416C68.3867 71.96 68.6587 72.232 68.9787 72.232ZM116.04 44.296C116.456 44.296 116.776 44.488 117 44.872C117.256 45.256 117.384 45.784 117.384 46.456C117.384 47.736 117.08 48.728 116.472 49.432C115.288 50.872 113.608 52.2 111.432 53.416C109.288 54.632 106.984 55.24 104.52 55.24C101.16 55.24 98.5521 54.328 96.6961 52.504C94.8401 50.68 93.9121 48.184 93.9121 45.016C93.9121 42.808 94.3761 40.76 95.3041 38.872C96.2321 36.952 97.5121 35.432 99.1441 34.312C100.808 33.192 102.68 32.632 104.76 32.632C106.616 32.632 108.104 33.192 109.224 34.312C110.344 35.4 110.904 36.888 110.904 38.776C110.904 40.984 110.104 42.888 108.504 44.488C106.936 46.056 104.264 47.304 100.488 48.232C101.288 49.704 102.808 50.44 105.048 50.44C106.488 50.44 108.12 49.944 109.944 48.952C111.8 47.928 113.4 46.6 114.744 44.968C115.128 44.52 115.56 44.296 116.04 44.296ZM103.944 37.336C102.76 37.336 101.752 38.024 100.92 39.4C100.12 40.776 99.7201 42.44 99.7201 44.392V44.488C101.608 44.04 103.096 43.368 104.184 42.472C105.272 41.576 105.816 40.536 105.816 39.352C105.816 38.744 105.64 38.264 105.288 37.912C104.968 37.528 104.52 37.336 103.944 37.336ZM116.884 55.24C115.668 55.24 114.804 54.6 114.292 53.32C113.812 52.04 113.572 49.992 113.572 47.176C113.572 43.016 114.164 39.064 115.348 35.32C115.636 34.392 116.1 33.72 116.74 33.304C117.412 32.856 118.34 32.632 119.524 32.632C120.164 32.632 120.612 32.712 120.868 32.872C121.124 33.032 121.252 33.336 121.252 33.784C121.252 34.296 121.012 35.448 120.532 37.24C120.212 38.52 119.956 39.64 119.764 40.6C119.572 41.56 119.412 42.744 119.284 44.152C120.34 41.4 121.524 39.16 122.836 37.432C124.148 35.704 125.428 34.472 126.676 33.736C127.956 33 129.124 32.632 130.18 32.632C132.26 32.632 133.3 33.672 133.3 35.752C133.3 37 132.948 39.256 132.244 42.52C131.636 45.304 131.332 47.144 131.332 48.04C131.332 49.32 131.796 49.96 132.724 49.96C133.364 49.96 134.116 49.576 134.98 48.808C135.876 48.008 137.06 46.728 138.532 44.968C138.916 44.52 139.348 44.296 139.828 44.296C140.244 44.296 140.564 44.488 140.788 44.872C141.044 45.256 141.172 45.784 141.172 46.456C141.172 47.736 140.868 48.728 140.26 49.432C138.884 51.128 137.396 52.52 135.796 53.608C134.228 54.696 132.436 55.24 130.42 55.24C128.788 55.24 127.556 54.776 126.724 53.848C125.892 52.888 125.476 51.512 125.476 49.72C125.476 48.824 125.7 47.224 126.148 44.92C126.564 42.904 126.772 41.512 126.772 40.744C126.772 40.232 126.596 39.976 126.244 39.976C125.828 39.976 125.236 40.52 124.468 41.608C123.732 42.664 122.964 44.072 122.164 45.832C121.396 47.592 120.772 49.448 120.292 51.4C119.94 52.904 119.524 53.928 119.044 54.472C118.596 54.984 117.876 55.24 116.884 55.24ZM146.216 56.296C144.552 56.296 143.272 55.912 142.376 55.144C141.512 54.376 141.08 53.512 141.08 52.552C141.08 51.72 141.384 51 141.992 50.392C142.6 49.784 143.496 49.48 144.68 49.48C145.096 49.48 145.576 49.528 146.12 49.624C146.696 49.688 147.128 49.736 147.416 49.768C147.384 48.936 147.192 48.152 146.84 47.416C146.52 46.68 146.104 45.976 145.592 45.304C145.08 44.6 144.6 43.992 144.152 43.48C143.16 45.368 142.168 46.936 141.176 48.184C140.216 49.432 139.16 50.616 138.008 51.736C137.432 52.312 136.824 52.6 136.184 52.6C135.672 52.6 135.256 52.424 134.936 52.072C134.616 51.688 134.456 51.224 134.456 50.68C134.456 50.04 134.68 49.448 135.128 48.904L135.752 48.136C137.512 45.96 138.84 44.168 139.736 42.76C140.28 41.832 140.92 40.6 141.656 39.064C142.392 37.496 143.112 35.88 143.816 34.216C144.424 32.808 145.688 32.104 147.608 32.104C148.504 32.104 149.128 32.184 149.48 32.344C149.832 32.504 150.008 32.76 150.008 33.112C150.008 33.304 149.944 33.608 149.816 34.024C149.688 34.44 149.512 34.856 149.288 35.272C148.712 36.424 148.424 37.4 148.424 38.2C148.424 38.68 148.584 39.208 148.904 39.784C149.256 40.36 149.784 41.08 150.488 41.944C151.512 43.288 152.28 44.44 152.792 45.4C153.336 46.328 153.608 47.352 153.608 48.472C153.608 48.792 153.576 49.24 153.512 49.816C155.08 49.208 156.92 47.592 159.032 44.968C159.416 44.52 159.848 44.296 160.328 44.296C160.744 44.296 161.064 44.488 161.288 44.872C161.544 45.256 161.672 45.784 161.672 46.456C161.672 47.672 161.368 48.664 160.76 49.432C159.16 51.416 157.624 52.776 156.152 53.512C154.712 54.216 152.92 54.6 150.776 54.664C149.496 55.752 147.976 56.296 146.216 56.296ZM174.957 45.736C175.373 45.736 175.693 45.928 175.917 46.312C176.173 46.696 176.301 47.224 176.301 47.896C176.301 49.048 176.029 50.04 175.485 50.872C174.589 52.248 173.405 53.32 171.933 54.088C170.493 54.856 168.765 55.24 166.749 55.24C163.677 55.24 161.293 54.328 159.597 52.504C157.901 50.648 157.053 48.152 157.053 45.016C157.053 42.808 157.517 40.76 158.445 38.872C159.373 36.952 160.653 35.432 162.285 34.312C163.949 33.192 165.821 32.632 167.901 32.632C169.757 32.632 171.245 33.192 172.365 34.312C173.485 35.4 174.045 36.888 174.045 38.776C174.045 40.984 173.245 42.888 171.645 44.488C170.077 46.056 167.389 47.304 163.581 48.232C164.349 49.704 165.645 50.44 167.469 50.44C168.781 50.44 169.853 50.136 170.685 49.528C171.549 48.92 172.541 47.896 173.661 46.456C174.045 45.976 174.477 45.736 174.957 45.736ZM167.085 37.336C165.901 37.336 164.893 38.024 164.061 39.4C163.261 40.776 162.861 42.44 162.861 44.392V44.488C164.749 44.04 166.237 43.368 167.325 42.472C168.413 41.576 168.957 40.536 168.957 39.352C168.957 38.744 168.781 38.264 168.429 37.912C168.109 37.528 167.661 37.336 167.085 37.336ZM274.989 55.24C273.005 55.24 271.421 54.52 270.237 53.08C269.053 51.64 268.461 49.752 268.461 47.416C268.461 44.856 269.053 42.44 270.237 40.168C271.421 37.864 272.989 36.024 274.941 34.648C276.925 33.24 279.021 32.536 281.229 32.536C281.933 32.536 282.397 32.68 282.621 32.968C282.877 33.224 283.085 33.704 283.245 34.408C283.917 34.28 284.621 34.216 285.357 34.216C286.925 34.216 287.709 34.776 287.709 35.896C287.709 36.568 287.469 38.168 286.989 40.696C286.253 44.376 285.885 46.936 285.885 48.376C285.885 48.856 285.997 49.24 286.221 49.528C286.477 49.816 286.797 49.96 287.181 49.96C287.789 49.96 288.525 49.576 289.389 48.808C290.253 48.008 291.421 46.728 292.893 44.968C293.277 44.52 293.709 44.296 294.189 44.296C294.605 44.296 294.925 44.488 295.149 44.872C295.405 45.256 295.533 45.784 295.533 46.456C295.533 47.736 295.229 48.728 294.621 49.432C293.309 51.064 291.917 52.44 290.445 53.56C288.973 54.68 287.549 55.24 286.173 55.24C285.117 55.24 284.141 54.888 283.245 54.184C282.381 53.448 281.725 52.456 281.277 51.208C279.613 53.896 277.517 55.24 274.989 55.24ZM276.717 50.392C277.421 50.392 278.093 49.976 278.733 49.144C279.373 48.312 279.837 47.208 280.125 45.832L281.901 37C280.557 37.032 279.309 37.544 278.157 38.536C277.037 39.496 276.141 40.776 275.469 42.376C274.797 43.976 274.461 45.672 274.461 47.464C274.461 48.456 274.653 49.192 275.037 49.672C275.453 50.152 276.013 50.392 276.717 50.392ZM295.04 55.24C293.824 55.24 292.96 54.6 292.448 53.32C291.968 52.04 291.728 49.992 291.728 47.176C291.728 43.016 292.32 39.064 293.504 35.32C293.792 34.392 294.256 33.72 294.896 33.304C295.568 32.856 296.496 32.632 297.68 32.632C298.32 32.632 298.768 32.712 299.024 32.872C299.28 33.032 299.408 33.336 299.408 33.784C299.408 34.296 299.168 35.448 298.688 37.24C298.368 38.52 298.112 39.64 297.92 40.6C297.728 41.56 297.568 42.744 297.44 44.152C298.496 41.4 299.68 39.16 300.992 37.432C302.304 35.704 303.584 34.472 304.832 33.736C306.112 33 307.28 32.632 308.336 32.632C310.416 32.632 311.456 33.672 311.456 35.752C311.456 37 311.104 39.256 310.4 42.52C309.792 45.304 309.488 47.144 309.488 48.04C309.488 49.32 309.952 49.96 310.88 49.96C311.52 49.96 312.272 49.576 313.136 48.808C314.032 48.008 315.216 46.728 316.688 44.968C317.072 44.52 317.504 44.296 317.984 44.296C318.4 44.296 318.72 44.488 318.944 44.872C319.2 45.256 319.328 45.784 319.328 46.456C319.328 47.736 319.024 48.728 318.416 49.432C317.04 51.128 315.552 52.52 313.952 53.608C312.384 54.696 310.592 55.24 308.576 55.24C306.944 55.24 305.712 54.776 304.88 53.848C304.048 52.888 303.632 51.512 303.632 49.72C303.632 48.824 303.856 47.224 304.304 44.92C304.72 42.904 304.928 41.512 304.928 40.744C304.928 40.232 304.752 39.976 304.4 39.976C303.984 39.976 303.392 40.52 302.624 41.608C301.888 42.664 301.12 44.072 300.32 45.832C299.552 47.592 298.928 49.448 298.448 51.4C298.096 52.904 297.68 53.928 297.2 54.472C296.752 54.984 296.032 55.24 295.04 55.24ZM321.349 55.24C319.365 55.24 317.781 54.52 316.597 53.08C315.413 51.64 314.821 49.752 314.821 47.416C314.821 44.856 315.413 42.44 316.597 40.168C317.781 37.864 319.349 36.024 321.301 34.648C323.285 33.24 325.381 32.536 327.589 32.536C328.293 32.536 328.757 32.68 328.981 32.968C329.237 33.224 329.445 33.704 329.605 34.408C330.277 34.28 330.981 34.216 331.717 34.216C333.285 34.216 334.069 34.776 334.069 35.896C334.069 36.568 333.829 38.168 333.349 40.696C332.613 44.376 332.245 46.936 332.245 48.376C332.245 48.856 332.357 49.24 332.581 49.528C332.837 49.816 333.157 49.96 333.541 49.96C334.149 49.96 334.885 49.576 335.749 48.808C336.613 48.008 337.781 46.728 339.253 44.968C339.637 44.52 340.069 44.296 340.549 44.296C340.965 44.296 341.285 44.488 341.509 44.872C341.765 45.256 341.893 45.784 341.893 46.456C341.893 47.736 341.589 48.728 340.981 49.432C339.669 51.064 338.277 52.44 336.805 53.56C335.333 54.68 333.909 55.24 332.533 55.24C331.477 55.24 330.501 54.888 329.605 54.184C328.741 53.448 328.085 52.456 327.637 51.208C325.973 53.896 323.877 55.24 321.349 55.24ZM323.077 50.392C323.781 50.392 324.453 49.976 325.093 49.144C325.733 48.312 326.197 47.208 326.485 45.832L328.261 37C326.917 37.032 325.669 37.544 324.517 38.536C323.397 39.496 322.501 40.776 321.829 42.376C321.157 43.976 320.821 45.672 320.821 47.464C320.821 48.456 321.013 49.192 321.397 49.672C321.813 50.152 322.373 50.392 323.077 50.392ZM362.568 44.392C362.984 44.392 363.304 44.6 363.528 45.016C363.784 45.4 363.911 45.896 363.911 46.504C363.911 47.24 363.8 47.816 363.576 48.232C363.352 48.648 363 49.016 362.52 49.336C359.768 51.192 357.752 52.568 356.472 53.464L353.4 55.528C352.184 62.152 350.584 67.352 348.6 71.128C346.648 74.936 344.152 76.84 341.112 76.84C339.48 76.84 338.152 76.328 337.128 75.304C336.104 74.312 335.591 73 335.591 71.368C335.591 69.096 336.488 66.648 338.28 64.024C340.072 61.432 343.432 58.232 348.359 54.424L348.648 52.552C348.104 53.416 347.384 54.088 346.488 54.568C345.624 55.016 344.76 55.24 343.896 55.24C341.912 55.24 340.328 54.52 339.144 53.08C337.96 51.64 337.368 49.752 337.368 47.416C337.368 44.856 337.96 42.44 339.144 40.168C340.328 37.864 341.896 36.024 343.848 34.648C345.832 33.24 347.928 32.536 350.136 32.536C350.84 32.536 351.304 32.68 351.528 32.968C351.784 33.224 351.992 33.704 352.152 34.408C352.76 34.28 353.464 34.216 354.264 34.216C355.064 34.216 355.624 34.344 355.944 34.6C356.296 34.824 356.472 35.288 356.472 35.992C356.472 36.376 356.456 36.68 356.424 36.904C356.296 37.896 355.896 40.408 355.224 44.44C355.096 45.208 354.952 46.056 354.792 46.984C354.664 47.88 354.52 48.84 354.36 49.864C356.824 47.944 359.192 46.248 361.464 44.776C361.88 44.52 362.248 44.392 362.568 44.392ZM345.624 50.392C346.36 50.392 347.064 49.944 347.736 49.048C348.408 48.152 348.888 46.872 349.176 45.208L350.712 37C349.4 37.032 348.184 37.544 347.064 38.536C345.944 39.496 345.048 40.776 344.376 42.376C343.704 43.976 343.368 45.672 343.368 47.464C343.368 48.456 343.56 49.192 343.944 49.672C344.36 50.152 344.92 50.392 345.624 50.392ZM341.64 72.184C342.44 72.184 343.336 71.224 344.328 69.304C345.352 67.384 346.328 64.328 347.256 60.136C344.792 62.248 343.016 64.152 341.928 65.848C340.84 67.544 340.296 69.032 340.296 70.312C340.296 70.856 340.392 71.304 340.584 71.656C340.808 72.008 341.16 72.184 341.64 72.184ZM382.368 44.296C382.784 44.296 383.104 44.488 383.328 44.872C383.584 45.256 383.712 45.784 383.712 46.456C383.712 47.736 383.408 48.728 382.8 49.432C381.616 50.872 379.936 52.2 377.76 53.416C375.616 54.632 373.312 55.24 370.848 55.24C367.488 55.24 364.88 54.328 363.024 52.504C361.168 50.68 360.24 48.184 360.24 45.016C360.24 42.808 360.704 40.76 361.632 38.872C362.56 36.952 363.84 35.432 365.472 34.312C367.136 33.192 369.008 32.632 371.088 32.632C372.944 32.632 374.432 33.192 375.552 34.312C376.672 35.4 377.232 36.888 377.232 38.776C377.232 40.984 376.432 42.888 374.832 44.488C373.264 46.056 370.592 47.304 366.816 48.232C367.616 49.704 369.136 50.44 371.376 50.44C372.816 50.44 374.448 49.944 376.272 48.952C378.128 47.928 379.728 46.6 381.072 44.968C381.456 44.52 381.888 44.296 382.368 44.296ZM370.272 37.336C369.088 37.336 368.08 38.024 367.248 39.4C366.448 40.776 366.048 42.44 366.048 44.392V44.488C367.936 44.04 369.424 43.368 370.512 42.472C371.6 41.576 372.144 40.536 372.144 39.352C372.144 38.744 371.968 38.264 371.616 37.912C371.296 37.528 370.848 37.336 370.272 37.336ZM399.196 39.208C399.9 39.208 400.492 39.464 400.972 39.976C401.484 40.456 401.74 41.064 401.74 41.8C401.74 42.216 401.644 42.664 401.452 43.144C400.94 44.328 400.22 45.32 399.292 46.12C398.364 46.92 397.34 47.32 396.22 47.32C395.324 47.32 394.556 47 393.916 46.36C393.308 45.72 393.004 44.856 393.004 43.768C393.004 43.16 393.036 42.504 393.1 41.8C393.164 41.288 393.196 40.936 393.196 40.744C393.196 40.488 393.132 40.296 393.004 40.168C392.908 40.04 392.78 39.976 392.62 39.976C392.172 39.976 391.564 40.52 390.796 41.608C390.028 42.664 389.26 44.072 388.492 45.832C387.724 47.592 387.1 49.448 386.62 51.4C386.268 52.936 385.868 53.96 385.42 54.472C384.972 54.984 384.236 55.24 383.212 55.24C381.996 55.24 381.132 54.6 380.62 53.32C380.14 52.04 379.9 49.992 379.9 47.176C379.9 43.016 380.492 39.064 381.676 35.32C381.964 34.392 382.428 33.72 383.068 33.304C383.74 32.856 384.668 32.632 385.852 32.632C386.492 32.632 386.94 32.712 387.196 32.872C387.452 33.032 387.58 33.336 387.58 33.784C387.58 34.296 387.34 35.448 386.86 37.24C386.54 38.52 386.284 39.64 386.092 40.6C385.9 41.56 385.74 42.744 385.612 44.152C386.668 41.4 387.852 39.16 389.164 37.432C390.476 35.704 391.756 34.472 393.004 33.736C394.252 33 395.388 32.632 396.412 32.632C397.34 32.632 398.044 32.904 398.524 33.448C399.036 33.96 399.292 34.728 399.292 35.752C399.292 36.36 399.116 37.512 398.764 39.208H399.196Z" fill="white"/>
</svg>
